<svg xmlns="http://www.w3.org/2000/svg" id="Ebene_1" data-name="Ebene 1" viewBox="0 0 100 100">
  <defs>
    <style>
      .cls-1 {
        fill: #292930;
      }

      .cls-2 {
        fill: #fbc337;
      }
    </style>
  </defs>
  <path class="cls-1" d="M22.37,32.29a34.59,34.59,0,0,1,26.38,57,44.59,44.59,0,0,0,9.51-2A40.35,40.35,0,0,0,25.47,23.42,40.17,40.17,0,0,0,2,31,44.68,44.68,0,0,0,0,40.51,34.45,34.45,0,0,1,22.37,32.29Z"/>
  <circle class="cls-1" cx="22.18" cy="67.07" r="9.6" transform="translate(-14.82 6.89) rotate(-13.28)"/>
  <path class="cls-1" d="M49.87,65.4a26,26,0,0,0-49-12.12,44.24,44.24,0,0,0,2.78,9A19.08,19.08,0,1,1,27,85.62a44.79,44.79,0,0,0,9,2.79A26,26,0,0,0,49.87,65.4Z"/>
  <path class="cls-2" d="M89.25,44.63A44.63,44.63,0,0,0,8.91,17.87,48.88,48.88,0,0,1,71.38,80.35,44.56,44.56,0,0,0,89.25,44.63Z"/>
</svg>